<mxfile host="65bd71144e">
    <diagram id="g0X4ewevW1Vin1E8OXlt" name="第1頁">
        <mxGraphModel dx="2063" dy="1337" grid="1" gridSize="10" guides="1" tooltips="1" connect="1" arrows="1" fold="1" page="1" pageScale="1" pageWidth="827" pageHeight="1169" math="0" shadow="0">
            <root>
                <mxCell id="0"/>
                <mxCell id="1" parent="0"/>
                <mxCell id="6" style="edgeStyle=none;html=1;entryX=0.5;entryY=0;entryDx=0;entryDy=0;exitX=0.5;exitY=1;exitDx=0;exitDy=0;" parent="1" source="2" target="3" edge="1">
                    <mxGeometry relative="1" as="geometry">
                        <mxPoint x="410" y="520" as="sourcePoint"/>
                    </mxGeometry>
                </mxCell>
                <mxCell id="7" style="edgeStyle=none;html=1;" parent="1" source="2" target="5" edge="1">
                    <mxGeometry relative="1" as="geometry"/>
                </mxCell>
                <mxCell id="8" style="edgeStyle=none;html=1;entryX=0.5;entryY=0;entryDx=0;entryDy=0;exitX=0.5;exitY=1;exitDx=0;exitDy=0;" parent="1" source="2" target="4" edge="1">
                    <mxGeometry relative="1" as="geometry"/>
                </mxCell>
                <mxCell id="2" value="Programmer" style="rounded=0;whiteSpace=wrap;html=1;fillColor=#0C081D;" parent="1" vertex="1">
                    <mxGeometry x="354" y="50" width="120" height="60" as="geometry"/>
                </mxCell>
                <mxCell id="3" value="Computer" style="rounded=0;whiteSpace=wrap;html=1;fillColor=#0C081D;" parent="1" vertex="1">
                    <mxGeometry x="134" y="210" width="120" height="60" as="geometry"/>
                </mxCell>
                <mxCell id="4" value="Tablet" style="rounded=0;whiteSpace=wrap;html=1;fillColor=#0C081D;" parent="1" vertex="1">
                    <mxGeometry x="574" y="210" width="120" height="60" as="geometry"/>
                </mxCell>
                <mxCell id="5" value="Laptop" style="rounded=0;whiteSpace=wrap;html=1;fillColor=#0C081D;" parent="1" vertex="1">
                    <mxGeometry x="358" y="210" width="120" height="60" as="geometry"/>
                </mxCell>
                <mxCell id="9" value="" style="shape=flexArrow;endArrow=classic;html=1;" edge="1" parent="1">
                    <mxGeometry width="50" height="50" relative="1" as="geometry">
                        <mxPoint x="420" y="320" as="sourcePoint"/>
                        <mxPoint x="420" y="450" as="targetPoint"/>
                    </mxGeometry>
                </mxCell>
                <mxCell id="18" style="edgeStyle=none;html=1;entryX=0.5;entryY=0;entryDx=0;entryDy=0;" edge="1" parent="1" source="13" target="17">
                    <mxGeometry relative="1" as="geometry"/>
                </mxCell>
                <mxCell id="13" value="Programmer" style="rounded=0;whiteSpace=wrap;html=1;fillColor=#0C081D;" vertex="1" parent="1">
                    <mxGeometry x="358" y="580" width="120" height="60" as="geometry"/>
                </mxCell>
                <mxCell id="19" style="edgeStyle=none;html=1;entryX=0.5;entryY=1;entryDx=0;entryDy=0;" edge="1" parent="1" source="14" target="17">
                    <mxGeometry relative="1" as="geometry"/>
                </mxCell>
                <mxCell id="14" value="Computer" style="rounded=0;whiteSpace=wrap;html=1;fillColor=#0C081D;" vertex="1" parent="1">
                    <mxGeometry x="150" y="930" width="120" height="60" as="geometry"/>
                </mxCell>
                <mxCell id="21" style="edgeStyle=none;html=1;entryX=0.5;entryY=1;entryDx=0;entryDy=0;" edge="1" parent="1" source="15" target="17">
                    <mxGeometry relative="1" as="geometry"/>
                </mxCell>
                <mxCell id="15" value="Tablet" style="rounded=0;whiteSpace=wrap;html=1;fillColor=#0C081D;" vertex="1" parent="1">
                    <mxGeometry x="560" y="930" width="120" height="60" as="geometry"/>
                </mxCell>
                <mxCell id="20" style="edgeStyle=none;html=1;entryX=0.5;entryY=1;entryDx=0;entryDy=0;" edge="1" parent="1" source="16" target="17">
                    <mxGeometry relative="1" as="geometry"/>
                </mxCell>
                <mxCell id="16" value="Laptop" style="rounded=0;whiteSpace=wrap;html=1;fillColor=#0C081D;" vertex="1" parent="1">
                    <mxGeometry x="354" y="930" width="120" height="60" as="geometry"/>
                </mxCell>
                <mxCell id="17" value="IProgrammable" style="rounded=0;whiteSpace=wrap;html=1;fillColor=#0C081D;" vertex="1" parent="1">
                    <mxGeometry x="358" y="730" width="120" height="60" as="geometry"/>
                </mxCell>
            </root>
        </mxGraphModel>
    </diagram>
</mxfile>